<?xml version="1.0" standalone="no"?><!DOCTYPE svg PUBLIC "-//W3C//DTD SVG 1.1//EN" "http://www.w3.org/Graphics/SVG/1.1/DTD/svg11.dtd"><svg t="1590854092600" class="icon" viewBox="0 0 1024 1024" version="1.1" xmlns="http://www.w3.org/2000/svg" p-id="1358" xmlns:xlink="http://www.w3.org/1999/xlink" width="200" height="200"><defs><style type="text/css"></style></defs><path d="M521.4464 159.3088a405.2736 405.2736 0 0 0-107.78624 14.60736C170.46016-69.03296 124.8768 112.0768 122.7264 254.66368c-1.8176 120.78592 33.08032 117.7856 44.04224 113.8944-32.1536 58.08128-50.51904 124.86144-50.51904 195.94752 0 223.79008 181.41696 405.21216 405.20192 405.21216 223.79008 0 405.20704-181.42208 405.20704-405.21216-0.01024-223.77984-181.42208-405.1968-405.21216-405.1968z m0 794.19904c-214.83008 0-388.99712-174.16192-388.99712-389.00224 0-74.59328 21.03296-144.26112 57.44128-203.45856-1.0752 0.06144-2.23744 0-3.4304-0.15872-16.04608 2.20672-29.91616-18.02752-29.91616-18.02752l0.03072 0.01024c-9.28256-11.41248-17.3824-37.2224-16.53248-93.2096 1.59232-105.3952 30.08512-234.63424 165.48352-147.69664 30.27968 16.5632 66.47296 44.90752 109.70112 88.3456a388.88448 388.88448 0 0 1 106.21952-14.80704v778.00448z" p-id="1359" fill="#707070"></path><path d="M613.09952 176.82944l0.13312-0.1792c-0.7424-0.08704-1.4592-0.22528-2.20672-0.3072l2.0736 0.4864zM917.2992 352.01024c0.50688-0.80896 0.98816-1.62816 1.44384-2.46272l0.49152-0.94208a46.7968 46.7968 0 0 0 1.3312-2.81088c17.2544-38.14912 8.06912-113.46432 8.06912-113.46432l-0.03072 0.11264c-4.67456-93.5168-39.77728-135.30112-39.77728-135.30112-26.81856-31.2064-56.25344-42.94144-85.52448-42.76736-93.06624-3.95264-186.12224 117.07392-190.06976 122.27072 163.02592 19.0464 256.84992 193.54112 256.84992 193.54112 2.23744 0.15872 4.34688 0.18432 6.38976 0.14336 11.38176 0.6144 20.13184-1.46944 26.9056-5.14048 5.70368-2.53952 10.25536-7.17824 13.92128-13.17888z" p-id="1360" fill="#707070"></path></svg>