<?xml version="1.0" standalone="no"?><!DOCTYPE svg PUBLIC "-//W3C//DTD SVG 1.1//EN" "http://www.w3.org/Graphics/SVG/1.1/DTD/svg11.dtd"><svg t="1590891299013" class="icon" viewBox="0 0 1024 1024" version="1.1" xmlns="http://www.w3.org/2000/svg" p-id="4235" xmlns:xlink="http://www.w3.org/1999/xlink" width="200" height="200"><defs><style type="text/css"></style></defs><path d="M318.236467 593.92c8.192-4.096 15.36-4.096 27.648-12.288 15.36-12.288 31.744-32.768 0-62.464-102.4-157.696-66.56-261.12-51.2-297.984-12.288-4.096-27.648-8.192-43.008-8.192H246.556467c-98.304 0-125.952 95.232-125.952 145.408 0 123.904 70.656 174.08 70.656 174.08s4.096 8.192 4.096 24.576c0 4.096-4.096 16.384-8.192 20.48C147.228467 610.304 14.108467 648.192 1.820467 722.944c-4.096 20.48 0 46.08 0 62.464 23.552 16.384 94.208 32.768 94.208 32.768s4.096-20.48 12.288-50.176c6.144-41.984 64.512-115.712 209.92-174.08z m701.44 128C1011.484467 647.168 870.172467 614.4 830.236467 577.536c-4.096-4.096-8.192-16.384-8.192-20.48 0-20.48 4.096-24.576 4.096-24.576s74.752-50.176 70.656-174.08c-4.096-54.272-31.744-145.408-130.048-145.408h-4.096c-19.456 0-39.936 4.096-51.2 12.288 19.456 74.752 47.104 206.848-59.392 293.888-39.936 62.464 94.208 103.424 74.752 91.136C850.716467 668.672 885.532467 713.728 893.724467 759.808c8.192 36.864 12.288 62.464 12.288 62.464s91.136-16.384 118.784-32.768c-1.024-21.504 3.072-41.984-5.12-67.584z m0 0" fill="" p-id="4236"></path><path d="M578.332467 581.632c-4.096-4.096-8.192-20.48-8.192-24.576 0-24.576 4.096-32.768 4.096-32.768s91.136-54.272 91.136-215.04c-4.096-66.56-39.936-182.272-157.696-182.272h-8.192c-121.856 0-157.696 115.712-157.696 182.272 0 153.6 91.136 215.04 91.136 215.04s12.288 12.288 12.288 36.864c0 4.096-8.192 16.384-15.36 20.48-51.2 40.96-232.448 87.04-244.736 178.176-8.192 36.864-63.488 99.328 118.784 123.904 51.2 8.192 118.784 12.288 208.896 12.288 417.792 0 330.752-87.04 319.488-136.192-17.408-91.136-202.752-137.216-253.952-178.176z m0 0" fill="" p-id="4237"></path></svg>